<svg width="225" height="45" viewBox="0 0 225 45" fill="none" xmlns="http://www.w3.org/2000/svg">
<path d="M44.0204 22.6809L44.1315 22.5674L44.2164 22.433C46.0167 19.5825 48.1988 12.3557 42.4447 6.24192C38.7721 2.33981 34.3533 2.13054 30.8384 3.07901C29.0997 3.54818 27.5563 4.3014 26.3656 5.043C25.8867 5.34133 25.4406 5.65298 25.0495 5.95998C23.4337 4.48503 21.2797 3.30584 18.9255 2.7651C15.9527 2.08228 12.5828 2.40478 9.57696 4.52983C6.1302 6.96656 4.52338 9.7029 3.89518 12.2651C3.27878 14.7791 3.6427 16.9893 3.86619 18.2731L3.87983 18.3515L3.90168 18.4279C4.17005 19.3672 4.83003 21.45 6.01721 22.9406C6.29575 23.2903 7.22894 24.2791 8.46352 25.5602C9.733 26.8775 11.3991 28.583 13.2146 30.4225C16.8427 34.0986 21.0845 38.3269 23.9605 41.0691L25.0323 42.091L26.0679 41.0324L44.0204 22.6809Z" fill="white" stroke="white" stroke-width="3"/>
<path d="M12.845 4.63984C12.5328 4.73787 12.2206 4.86263 11.9173 4.9874C11.8995 4.99631 11.8905 4.99631 11.8727 5.00522C11.3821 5.2191 10.9093 5.46862 10.4455 5.74489V9.62146H6.62782C6.58322 9.70166 6.5297 9.78187 6.4851 9.86207C6.45834 9.90663 6.4405 9.94228 6.41374 9.98684C6.33346 10.1294 6.2621 10.272 6.19074 10.4146C6.1729 10.4502 6.15506 10.477 6.13722 10.5126C6.05694 10.673 5.98558 10.8424 5.91422 11.0028C5.9053 11.0206 5.9053 11.0295 5.89638 11.0473C5.71798 11.484 5.56635 11.9385 5.44147 12.393H10.4366V17.936H13.5496V12.393H24.9671V9.62146H13.5496V4.42596C13.3356 4.47943 13.1304 4.54181 12.9252 4.60419C12.9074 4.61311 12.8806 4.63093 12.845 4.63984Z" fill="#CE1124"/>
<path d="M7.75166 8.68571L7.38595 8.49857C7.34135 8.56095 7.28783 8.62333 7.24323 8.68571H7.75166Z" fill="#CE1124"/>
<path d="M16.2791 13.3198L24.976 17.9271V16.8399L18.3575 13.3198H16.2791Z" fill="#CE1124"/>
<path d="M5.04895 15.1021C5.04895 15.1288 5.04895 15.1556 5.04895 15.1734C5.04895 15.3249 5.04895 15.4764 5.04895 15.6279L9.41971 13.3198H7.34137L5.08463 14.5229C5.08463 14.5407 5.08463 14.5585 5.08463 14.5852C5.06679 14.7546 5.05787 14.9239 5.04895 15.1021Z" fill="#CE1124"/>
<path d="M21.9879 5.58446C21.756 5.45079 21.524 5.32602 21.2832 5.21017C21.2743 5.20126 21.2564 5.20126 21.2475 5.19235L14.6022 8.70354H16.6716L22.2555 5.73596C22.1752 5.6914 22.086 5.62902 21.9879 5.58446Z" fill="#CE1124"/>
<path d="M9.41972 8.01736V6.45782C9.277 6.56476 9.13429 6.68061 9.00049 6.80537C8.95589 6.84993 8.90237 6.88558 8.85777 6.93013C8.80425 6.97469 8.75965 7.01925 8.70613 7.06381C8.59017 7.17075 8.47421 7.27769 8.35825 7.39354C8.34933 7.40245 8.33149 7.42028 8.32257 7.42919L9.41972 8.01736Z" fill="#00247D"/>
<path d="M16.3505 4.0784C16.1899 4.0784 16.0294 4.08732 15.8688 4.08732C15.7885 4.08732 15.7082 4.09623 15.628 4.10514C15.5566 4.11405 15.4763 4.11405 15.405 4.12296C15.2979 4.13187 15.1998 4.14079 15.0928 4.1497C15.0482 4.15861 15.0036 4.15861 14.9679 4.16752C14.843 4.18534 14.7271 4.19426 14.6111 4.22099V8.01736L20.4982 4.86263C19.8382 4.60419 19.1513 4.40813 18.4645 4.27446H18.4556C18.2861 4.23881 18.1166 4.21208 17.9471 4.19426C17.9293 4.19426 17.9115 4.19426 17.8936 4.18534C17.742 4.16752 17.5814 4.1497 17.4298 4.13187C17.3941 4.13187 17.3495 4.12296 17.3138 4.12296C17.18 4.11405 17.0462 4.10514 16.9035 4.09623C16.7251 4.08732 16.5556 4.08732 16.3772 4.08732H16.3505C16.3505 4.0784 16.3505 4.0784 16.3505 4.0784Z" fill="#00247D"/>
<path d="M41.6031 7.38469C37.1878 2.97342 30.0251 2.97342 25.6097 7.38469L24.9853 8.00851L24.3609 7.38469C24.2093 7.23319 24.0577 7.09061 23.8971 6.94802C23.8882 6.93911 23.8882 6.93911 23.8793 6.9302C23.7276 6.79652 23.5671 6.66285 23.4065 6.53808L19.3212 8.70362H24.9764V9.61261V12.3841V13.3198H19.3301L24.9764 16.332V16.84V17.9272H21.908L21.9169 17.9361L14.6115 14.0239V17.9361H13.5589V17.945H10.4459V17.9361H9.42009V14.0328L5.09393 16.3498C5.10285 16.4657 5.11177 16.5815 5.12961 16.6974C5.12961 16.733 5.13853 16.7687 5.13853 16.8043C5.15637 16.9202 5.16529 17.036 5.18313 17.1519C5.18313 17.1608 5.18313 17.1608 5.18313 17.1697C5.22773 17.4281 5.27233 17.6866 5.33477 17.945C5.36153 18.0609 5.38829 18.1678 5.41504 18.2836C5.42396 18.3104 5.43288 18.346 5.4418 18.3728C5.531 18.7025 5.63804 19.0233 5.754 19.3441C5.77184 19.3887 5.78968 19.4332 5.80752 19.4778C5.8432 19.5669 5.87888 19.6649 5.92348 19.7541C5.94132 19.8075 5.96808 19.861 5.99484 19.9056C6.05728 20.0482 6.11972 20.1907 6.19108 20.3333C6.22676 20.4046 6.25352 20.467 6.2892 20.5383C6.32488 20.6096 6.36056 20.6809 6.40516 20.7522C6.44976 20.8324 6.49436 20.9126 6.53895 20.9928C6.57463 21.0552 6.60139 21.1086 6.63707 21.171C6.71735 21.2958 6.78871 21.4205 6.87791 21.5542C6.91359 21.6077 6.94927 21.6522 6.97603 21.7057C7.03847 21.8037 7.10983 21.8929 7.17227 21.9909C7.19903 22.0354 7.23471 22.08 7.26147 22.1246C7.35959 22.2582 7.45771 22.383 7.55583 22.5078C7.58259 22.5345 7.60934 22.5702 7.62718 22.5969C7.71638 22.7038 7.80558 22.8019 7.89478 22.9088C7.93046 22.9444 7.95722 22.9801 7.9929 23.0157C8.10886 23.1405 8.22482 23.2653 8.3497 23.39L8.97409 24.0138L8.96517 24.0228L10.3567 25.3773L10.4815 25.306L9.25061 23.4078L11.3825 24.1832L12.105 22.0354L12.8275 24.1832L14.9593 23.4078L13.7284 25.306L15.664 26.4824L13.4073 26.7052L13.6481 28.6568L24.9764 39.9746L41.6031 23.3633C46.0185 18.952 46.0185 11.8049 41.6031 7.38469ZM30.8011 15.521L30.1767 14.8348L29.5077 15.4765L29.6594 14.5586L28.7406 14.4338L29.5523 13.9793L29.0707 13.1773L29.9359 13.5248L30.2659 12.6515L30.5335 13.5426L31.4166 13.2575L30.8814 14.0239L31.6574 14.5318L30.7298 14.5942L30.8011 15.521ZM34.5386 7.4649L35.4038 7.81245L35.7338 6.93911L36.0014 7.83028L36.8845 7.5451L36.3493 8.31151L37.1253 8.81947L36.1977 8.88185L36.278 9.80866L35.6536 9.12247L34.9846 9.76411L35.1362 8.8462L34.2175 8.72144L35.0202 8.26695L34.5386 7.4649ZM35.7874 24.397L35.163 23.7108L34.494 24.3525L34.6456 23.4346L33.7269 23.3098L34.5386 22.8553L34.0569 22.0533L34.9221 22.4008L35.2522 21.5275L35.5198 22.4187L36.4028 22.1335L35.8676 22.8999L36.6437 23.4078L35.716 23.4702L35.7874 24.397ZM38.1333 17.4727L37.5178 17.0004L36.8667 17.437L37.1343 16.7063L36.5188 16.225L37.2948 16.2518L37.5624 15.521L37.7765 16.2696L38.5525 16.2963L37.9103 16.733L38.1333 17.4727ZM40.7468 14.3625L40.1224 13.6763L39.4534 14.318L39.5962 13.4001L38.6774 13.2753L39.4891 12.8208L39.0075 12.0187L39.8727 12.3663L40.2027 11.493L40.4703 12.3841L41.3534 12.099L40.8182 12.8654L41.5942 13.3733L40.6666 13.4357L40.7468 14.3625Z" fill="#00247D"/>
<path d="M211.571 1H58V22.5H211.571V1Z" fill="#1C3568"/>
<path d="M179.833 22.5H58V44H179.833V22.5Z" fill="#CE1124"/>
<path d="M76.4286 5.09525V8.39247H73.1993V18.4048H69.383V8.39247H66.1905V5.09525H76.4286Z" fill="white"/>
<path d="M88.7143 5.09525V18.4048H84.8867V13.1932H81.2432V18.3647H77.4524V5.09525H81.28V9.86583H84.9235V5.09525H88.7143Z" fill="white"/>
<path d="M94.6162 8.39247V10.0411H98.4335V13.1775H94.6162V15.0673H98.9524V18.4048H90.7619V5.09525H98.9524V8.39247H94.6162Z" fill="white"/>
<path d="M111.368 16.4003H106.973L106.34 18.4048H102.024L106.815 5.09525H111.566L116.357 18.4048H112.002L111.368 16.4003ZM110.378 13.2734L109.19 9.58521L108.003 13.2734H110.378Z" fill="white"/>
<path d="M121.003 5.09525V12.5247C121.003 13.1207 121.107 13.5974 121.351 13.955C121.595 14.3126 121.978 14.4715 122.5 14.4715C123.022 14.4715 123.405 14.3126 123.649 13.955C123.893 13.5974 124.032 13.1207 124.032 12.5247V5.09525H127.619V12.5247C127.619 13.7961 127.375 14.8291 126.923 15.7429C126.47 16.6169 125.843 17.2923 125.042 17.7294C124.241 18.1664 123.371 18.4048 122.396 18.4048C121.42 18.4048 120.55 18.1664 119.784 17.7294C119.018 17.2923 118.426 16.6169 118.008 15.7429C117.59 14.8688 117.381 13.7961 117.381 12.5247V5.09525H121.003Z" fill="white"/>
<path d="M138.265 16.4866C137.88 17.0738 137.341 17.5436 136.61 17.8959C135.879 18.2482 135.032 18.4048 134.031 18.4048C132.492 18.4048 131.26 18.0525 130.259 17.3087C129.259 16.5649 128.72 15.508 128.643 14.0987H132.915C132.992 14.8425 133.3 15.234 133.877 15.234C134.07 15.234 134.262 15.1948 134.378 15.0774C134.493 14.9599 134.57 14.8034 134.57 14.6076C134.57 14.2945 134.416 14.0596 134.108 13.903C133.8 13.7073 133.3 13.5116 132.607 13.2767C131.799 13.0027 131.145 12.7286 130.606 12.4546C130.067 12.1806 129.605 11.75 129.22 11.202C128.835 10.6539 128.643 9.94931 128.643 9.04896C128.643 8.18775 128.874 7.48313 129.297 6.89595C129.721 6.30876 130.298 5.83902 131.029 5.565C131.76 5.25183 132.607 5.09525 133.531 5.09525C135.071 5.09525 136.264 5.44756 137.187 6.19133C138.073 6.89595 138.573 7.95288 138.65 9.32298H134.339C134.262 8.6575 133.993 8.30518 133.492 8.30518C133.339 8.30518 133.185 8.34433 133.069 8.46176C132.954 8.5792 132.915 8.73579 132.915 8.93152C132.915 9.20554 133.069 9.44042 133.377 9.63614C133.685 9.83187 134.147 10.0276 134.801 10.2625C135.609 10.5365 136.302 10.8496 136.841 11.1237C137.38 11.3977 137.842 11.8283 138.265 12.3763C138.65 12.9244 138.881 13.629 138.881 14.5293C138.842 15.234 138.65 15.8994 138.265 16.4866Z" fill="white"/>
<path d="M150.143 5.09525V8.39247H146.914V18.4048H143.097V8.39247H139.905V5.09525H150.143Z" fill="white"/>
<path d="M157.23 18.4048L154.942 13.6342V18.4048H151.167V5.09525H156.794C157.774 5.09525 158.609 5.29569 159.299 5.65649C159.989 6.05738 160.497 6.53845 160.86 7.21996C161.223 7.86138 161.368 8.62307 161.368 9.42485C161.368 10.3068 161.151 11.1086 160.715 11.7901C160.279 12.4716 159.626 12.9527 158.791 13.2734L161.405 18.3647H157.23V18.4048ZM154.942 10.828H156.431C156.794 10.828 157.048 10.7478 157.23 10.5473C157.411 10.3469 157.484 10.0663 157.484 9.70546C157.484 9.34467 157.375 9.06404 157.193 8.86361C157.012 8.66316 156.721 8.58297 156.395 8.58297H154.906V10.828H154.942Z" fill="white"/>
<path d="M170.082 16.3602H166.001L165.412 18.3647H161.405L165.89 5.09525H170.302L174.714 18.4048H170.67L170.082 16.3602ZM169.163 13.2333L168.06 9.54511L166.957 13.2333H169.163Z" fill="white"/>
<path d="M179.914 15.2377H183.929V18.4048H175.738V5.09525H179.914V15.2377Z" fill="white"/>
<path d="M188.024 5.09525V18.4048H184.952V5.09525H188.024Z" fill="white"/>
<path d="M198.392 16.3664H193.997L193.363 18.3648H189.048L193.839 5.09525H198.59L203.381 18.4048H199.026L198.392 16.3664ZM197.402 13.2488L196.214 9.57171L195.026 13.2488H197.402Z" fill="white"/>
<path d="M70.0554 27.732V40.1718H66.1905V27.732H70.0554Z" fill="white"/>
<path d="M80.9442 40.1718L78.603 35.7129V40.1718H74.738V27.732H80.4983C81.5017 27.732 82.3564 27.9193 83.0625 28.2565C83.7686 28.6312 84.2889 29.0809 84.6606 29.7178C85.0322 30.3173 85.1808 31.0293 85.1808 31.7786C85.1808 32.603 84.9579 33.3524 84.5119 33.9893C84.0659 34.6263 83.397 35.0759 82.5423 35.3757L85.218 40.1343H80.9442V40.1718ZM78.603 33.1275H80.1266C80.4983 33.1275 80.7584 33.0526 80.9442 32.8653C81.1301 32.6779 81.2044 32.4156 81.2044 32.0784C81.2044 31.7412 81.0929 31.4789 80.9071 31.2915C80.7213 31.1042 80.424 31.0293 80.0895 31.0293H78.5658V33.1275H78.603Z" fill="white"/>
<path d="M90.2722 30.8419V32.3782H94.1V35.3008H90.2722V37.0618H94.6203V40.1718H86.4072V27.732H94.6203V30.8044H90.2722V30.8419Z" fill="white"/>
<path d="M110.898 27.732V40.1718H107.07V33.9893L105.175 40.1718H101.867L99.9346 33.9893V40.1718H96.0696V27.732H100.789L103.502 35.1883L106.141 27.732H110.898Z" fill="white"/>
<path d="M116.509 30.8419V32.3782H120.337V35.3008H116.509V37.0618H120.857V40.1718H112.644V27.732H120.857V30.8044H116.509V30.8419Z" fill="white"/>
<path d="M137.098 27.732V40.1718H133.27V33.9893L131.375 40.1718H128.067L126.172 33.9893V40.1718H122.307V27.732H127.027L129.739 35.1883L132.378 27.732H137.098Z" fill="white"/>
<path d="M148.841 34.8886C149.25 35.4506 149.473 36.0501 149.473 36.7621C149.473 37.8487 149.101 38.673 148.395 39.2725C147.689 39.872 146.649 40.1718 145.311 40.1718H138.844V27.732H145.125C146.388 27.732 147.355 27.9942 148.098 28.5563C148.804 29.1183 149.176 29.9052 149.176 30.9543C149.176 31.6662 148.99 32.3032 148.618 32.7903C148.247 33.2774 147.726 33.6146 147.095 33.7645C147.838 33.9893 148.432 34.3266 148.841 34.8886ZM142.709 32.603H144.196C144.53 32.603 144.79 32.528 144.976 32.3782C145.162 32.2283 145.236 32.0035 145.236 31.7412C145.236 31.4414 145.162 31.2166 144.976 31.0667C144.79 30.9169 144.567 30.8419 144.196 30.8419H142.709V32.603ZM145.236 36.837C145.422 36.6871 145.497 36.4998 145.497 36.1626C145.497 35.563 145.162 35.2633 144.456 35.2633H142.709V37.0243H144.456C144.828 37.0618 145.088 36.9869 145.236 36.837Z" fill="white"/>
<path d="M154.639 30.8419V32.3782H158.466V35.3008H154.639V37.0618H158.987V40.1718H150.774V27.732H158.987V30.8044H154.639V30.8419Z" fill="white"/>
<path d="M166.642 40.1718L164.301 35.7129V40.1718H160.436V27.732H166.196C167.2 27.732 168.055 27.9193 168.761 28.2565C169.467 28.6312 169.987 29.0809 170.359 29.7178C170.73 30.3173 170.879 31.0293 170.879 31.7786C170.879 32.603 170.656 33.3524 170.21 33.9893C169.764 34.6263 169.095 35.0759 168.24 35.3757L170.916 40.1343H166.642V40.1718ZM164.301 33.1275H165.825C166.196 33.1275 166.457 33.0526 166.642 32.8653C166.828 32.6779 166.903 32.4156 166.903 32.0784C166.903 31.7412 166.791 31.4789 166.605 31.2915C166.419 31.1042 166.122 31.0293 165.788 31.0293H164.264V33.1275H164.301Z" fill="white"/>
</svg>
