<svg width="38" height="38" viewBox="0 0 38 38" fill="none" xmlns="http://www.w3.org/2000/svg">
<circle cx="19" cy="19" r="19" fill="#3182E9"/>
<path d="M23.1666 17.0093C23.1689 17.8647 22.969 18.7086 22.5833 19.4722C22.126 20.3872 21.423 21.1569 20.553 21.6949C19.683 22.2329 18.6803 22.5181 17.6574 22.5185C16.8019 22.5207 15.958 22.3209 15.1944 21.9352L11.5 23.1667L12.7315 19.4722C12.3458 18.7086 12.1459 17.8647 12.1481 17.0093C12.1485 15.9863 12.4337 14.9837 12.9718 14.1137C13.5098 13.2437 14.2794 12.5407 15.1944 12.0834C15.958 11.6977 16.8019 11.4978 17.6574 11.5H17.9815C19.3324 11.5746 20.6084 12.1448 21.5652 13.1015C22.5219 14.0582 23.0921 15.3342 23.1666 16.6852V17.0093Z" stroke="white" stroke-width="1.5" stroke-linecap="round" stroke-linejoin="round"/>
<path d="M16.8004 24.9231C17.7326 25.4996 18.8068 25.8052 19.9028 25.8056C20.8194 25.808 21.7235 25.5938 22.5417 25.1806L26.5 26.5L25.1806 22.5417C25.5938 21.7236 25.8079 20.8194 25.8056 19.9028C25.8053 19.3115 25.7163 18.7265 25.5438 18.1667" stroke="white" stroke-width="1.5" stroke-linecap="round" stroke-linejoin="round"/>
</svg>
